<svg height="512pt" viewBox="0 0 512 512" width="512pt" xmlns="http://www.w3.org/2000/svg" xmlns:xlink="http://www.w3.org/1999/xlink"><linearGradient id="a" gradientTransform="matrix(1 0 0 -1 0 -12310)" gradientUnits="userSpaceOnUse" x1="0" x2="512" y1="-12566" y2="-12566"><stop offset="0" stop-color="#00f38d"/><stop offset="1" stop-color="#009eff"/></linearGradient><path d="m512 256c0 141.386719-114.613281 256-256 256s-256-114.613281-256-256 114.613281-256 256-256 256 114.613281 256 256zm0 0" fill="url(#a)"/><g fill="#fff"><path d="m243.53125 268.394531h30v115.527344h-30zm0 0"/><path d="m301.027344 268.394531h30v115.527344h-30zm0 0"/><path d="m186.035156 268.394531h30v115.527344h-30zm0 0"/><path d="m385.480469 151.832031-41.371094-8.746093 1.78125-8.410157c2.414063-11.433593.234375-23.125-6.140625-32.917969-6.375-9.792968-16.183594-16.519531-27.617188-18.933593l-49.222656-10.40625c-23.601562-4.988281-46.859375 10.15625-51.851562 33.757812l-1.777344 8.40625-42.847656-9.058593c-11.421875-2.414063-23.097656-.234376-32.882813 6.132812-9.78125 6.371094-16.5 16.167969-18.914062 27.589844l-7.566407 35.789062 169.878907 35.910156h-145.539063v186.773438c0 24.121094 19.628906 43.75 43.75 43.75h166.742188c24.125 0 43.75-19.625 43.75-43.75v-163.792969l25.984375 5.492188 7.5625-35.789063c4.984375-23.578125-10.144531-46.8125-33.71875-51.796875zm-29.828125 245.886719c0 7.582031-6.167969 13.75-13.75 13.75h-166.742188c-7.582031 0-13.75-6.167969-13.75-13.75v-156.773438h194.242188zm-115.242188-285.339844c1.570313-7.417968 8.875-12.175781 16.296875-10.609375l49.222657 10.40625c3.59375.757813 6.675781 2.871094 8.679687 5.949219 2 3.078125 2.6875 6.75 1.925781 10.34375l-1.777344 8.410156-76.125-16.09375zm149.4375 85.046875-1.359375 6.433594-245.859375-51.972656 1.359375-6.433594c.757813-3.582031 2.863281-6.65625 5.929688-8.652344 3.066406-1.996093 6.730469-2.679687 10.3125-1.921875l219.042969 46.304688c7.394531 1.5625 12.136718 8.847656 10.574218 16.242187zm0 0"/></g></svg>